# Alias OBJ Model File
# Exported from SketchUp, (c) 2000-2012 Trimble Navigation Limited
# File units = meters

mtllib villa.mtl

g Mesh1 roof1 Model

usemtl Color_G10
v 0 3.99911 -6
vt -157.48 0
vn -1 0 -0
v 0 3.99911 -2
vt 0 0
v 0 6.99911 -4
vt -78.7402 118.11
f 1/1/1 2/2/1 3/3/1

usemtl Color_000
vn 0 0.5547 0.83205
vt 0 141.951
v -0.3 6.99911 -4
vt -11.811 141.951
v -0.3 3.99911 -2
vt -11.811 0
f 2/2/2 3/4/2 4/5/2 5/6/2 

v 9 3.99911 -2
vt 354.331 1.4238e-015
vn -6.02743e-018 0.5547 0.83205
v 9 4.20166 -2.13503
vt 354.331 9.58407
v 9 6.99911 -4
vt 354.331 141.951
vt -5.70399e-016 141.951
f 6/7/3 7/8/3 8/9/3 3/10/3 2/2/3 

v 9 4.20166 -2
vt 0 7.97443
vt -5.31628 7.97443
f 9/11/1 7/12/1 6/2/1

v 9.3 3.99911 -2
vt 366.142 0
vn 0 0 1
v 11.4 3.99911 -2
vt 448.819 0
v 11.4 4.20166 -2
vt 448.819 7.97443
v 9.3 4.20166 -2
vt 366.142 7.97443
vt 354.331 7.97443
vt 354.331 0
f 10/13/4 11/14/4 12/15/4 13/16/4 9/17/4 6/18/4 

vt 366.142 -4.62789e-015
vn 2.91618e-018 0.974402 0.224812
vt 354.331 -4.4786e-015
v 0 3.45919 0.340198
vt -1.19513e-015 -94.5542
v 11.4 3.45919 0.340198
vt 448.819 -94.5542
vt 448.819 -5.67289e-015
f 10/19/5 6/20/5 2/2/5 14/21/5 15/22/5 11/23/5 

vt -448.819 0
vn 0 -1 -0
vt -366.142 0
vt -354.331 0
v 9 3.99911 -6
vt -354.331 157.48
v 9.3 3.99911 -6
vt -366.142 157.48
v 11.4 3.99911 -6
vt -448.819 157.48
f 11/24/6 10/25/6 6/26/6 16/27/6 17/28/6 18/29/6 

usemtl Color_G16
v 9.3 4.20166 -6
vt -366.142 7.97443
vn -9.42002e-017 5.24915e-016 -1
v 11.4 4.20166 -6
vt -448.819 7.97443
v 11.4 4 -6
vt -448.819 0.0349065
v 9.3 4 -6
vt -366.142 0.0349065
vt -366.142 -8.26637e-014
vt -354.331 -8.26637e-014
vt -1.48347e-014 -8.26637e-014
v -0.3 3.99911 -6
vt 11.811 -8.26637e-014
v -0.3 4.20166 -6
vt 11.811 7.97443
f 19/30/7 20/31/7 21/32/7 22/33/7 17/34/7 16/35/7 1/36/7 23/37/7 24/38/7 

usemtl Color_G22
vt 366.142 157.48
vn 0 1 -0
v 9.3 4.20166 -5.86497
vt 366.142 152.164
v 9 4.20166 -5.86497
vt 354.331 152.164
vt 354.331 5.31628
v 9.3 4.20166 -2.13503
vt 366.142 5.31628
vt 448.819 157.48
f 19/39/8 25/40/8 26/41/8 7/42/8 27/43/8 13/13/8 12/14/8 20/44/8 

usemtl Color_G10
v 9.3 6.99911 -4
vt 78.7402 118.11
vn 1 0 -0
vt 152.164 7.97443
vt 157.48 7.97443
v 9.3 7.20166 -4
vt 78.7402 126.085
vt 5.31628 7.97443
f 28/45/9 25/46/9 19/47/9 29/48/9 13/11/9 27/49/9 

usemtl Color_G16
vt 354.331 54.5965
vn -1.01713e-015 -0.5547 0.83205
vt 354.331 -77.7703
vt 366.142 -77.7703
vt 366.142 54.5965
f 8/50/10 26/51/10 25/52/10 28/53/10 

usemtl Color_G10
f 8/45/9 7/49/9 26/46/9

usemtl Color_G16
vt -366.142 141.951
vn 0 -0.5547 -0.83205
vt -366.142 9.58407
vt -354.331 9.58407
vt -354.331 141.951
f 28/54/11 27/55/11 7/56/11 8/57/11 

usemtl Color_000
vt 0 -87.3544
vn 0 0.5547 -0.83205
vt 0 54.5965
vt -354.331 54.5965
vt -354.331 -77.7703
vt -354.331 -87.3544
f 1/58/12 3/59/12 8/60/12 26/61/12 16/62/12 

vt 11.811 -87.3544
vt 11.811 54.5965
f 3/59/12 1/58/12 23/63/12 4/64/12 

vt 157.48 0
v -0.3 7.20166 -4
v -0.3 4.20166 -2
v -0.3 3.66174 0.340198
vt -92.1338 -13.2825
v -0.3 3.45919 0.340198
vt -92.1338 -21.2569
f 23/65/9 24/47/9 30/48/9 31/11/9 32/66/9 33/67/9 5/2/9 4/45/9 

usemtl Color_G09
vt -366.142 -80.7192
vn -1.88207e-032 0.5547 -0.83205
vt 11.811 -80.7192
vt 11.811 61.2316
vt -366.142 61.2316
f 19/68/13 24/69/13 30/70/13 29/71/13 

usemtl Color_G11
vt -11.811 6.63512
vn -9.41033e-033 0.5547 0.83205
vt 354.331 6.63512
vt 366.142 6.63512
vt 366.142 148.586
vt -11.811 148.586
f 31/72/14 9/73/14 13/74/14 29/75/14 30/76/14 

usemtl Color_000
vt 11.811 1.79274
vn -2.76078e-018 -0.974402 -0.224812
vt -354.331 1.79274
vt -366.142 1.79274
vt -448.819 1.79274
v 11.4 3.66174 0.340198
vt -448.819 -92.7614
vt 11.811 -92.7614
f 31/77/15 9/78/15 13/79/15 12/80/15 34/81/15 32/82/15 

usemtl Color_G11
f 15/67/9 11/2/9 12/11/9 34/66/9 

vt 157.48 0.0349065
f 11/2/9 18/65/9 21/83/9 20/47/9 12/11/9 

usemtl Color_000
vt -366.142 1.15789e-010
vn -3.23129e-016 -7.35261e-013 -1
vt -448.819 1.15789e-010
f 17/84/16 22/33/16 21/32/16 18/85/16 

vt 11.811 -21.2569
vn 0 0 -1
vt 11.811 -13.2825
vt -448.819 -13.2825
vt -448.819 -21.2569
vt 0 -21.2569
f 33/86/17 32/87/17 34/88/17 15/89/17 14/90/17 

vn 0 0.974402 0.224812
vt -11.811 -94.5542
vt 0 -94.5542
f 2/2/18 5/6/18 33/91/18 14/92/18 

g Mesh2 house1 Model

usemtl Color_A06
v 10.7353 2 -6
vt -422.648 236.22
v 10.7848 2 -5.95044
vt -424.6 234.269
v 10.7353 2 -5.73527
vt -422.648 225.798
f 35/93/6 36/94/6 37/95/6

v 11 2 -6
vt -433.071 236.22
f 36/94/6 35/93/6 38/96/6

v 0 4 -6
vt 0 157.48
v 0 0 -6
v 11 0 -6
vt 433.071 0
vt 433.071 78.7402
vt 422.648 78.7402
v 10.7353 1 -6
vt 422.648 39.3701
v 9 1 -6
vt 354.331 39.3701
v 9 4 -6
vt 354.331 157.48
f 39/97/4 40/2/4 41/98/4 38/99/4 35/100/4 42/101/4 43/102/4 44/103/4 

usemtl Color_B01
v 0 4 -2
vt 78.7402 157.48
v 0 1 -2
vt 78.7402 39.3701
vt 236.22 0
vt 236.22 157.48
f 45/104/9 46/105/9 40/106/9 39/107/9 

usemtl Color_A06
v 9 1 -2
vt -354.331 39.3701
vn 8.02124e-017 0 -1
v 2.15704 1 -2
vt -84.9227 39.3701
vt 6.31594e-015 39.3701
vt 6.31594e-015 157.48
v 9 4 -2
f 47/108/19 48/109/19 46/110/19 45/111/19 49/27/19 

usemtl Color_J06
vt -84.9227 78.7402
vt -354.331 78.7402
v 5.15704 1 -0.75
vt -203.033 29.5276
v 2.15704 1 -0.75
vt -84.9227 29.5276
f 48/112/6 47/113/6 50/114/6 51/115/6 

v 10.7353 1 -0.264735
vt -422.648 10.4226
v 10.7353 1 -0
vt -422.648 0
v 5.15704 1 -0
vt -203.033 0
f 50/114/6 47/113/6 52/116/6 53/117/6 54/118/6 

v 10.7353 1 -5.73527
v 11 1 -5.73527
vt -433.071 225.798
v 11 1 -0.264735
vt -433.071 10.4226
f 52/116/6 47/113/6 55/95/6 56/119/6 57/120/6 

vt -354.331 236.22
f 42/93/6 55/95/6 47/113/6 43/121/6 

usemtl Color_A06
vt 225.798 39.3701
vt 236.22 39.3701
vt 236.22 78.7402
vt 225.798 78.7402
f 55/122/9 42/123/9 35/124/9 37/125/9 

vt -433.071 39.3701
vt -422.648 39.3701
vt -422.648 78.7402
v 11 2 -5.73527
vt -433.071 78.7402
f 56/126/17 55/127/17 37/128/17 58/129/17 

v 10.7848 2 -5.78483
vt -424.6 227.749
f 37/95/6 59/130/6 58/119/6

f 59/130/6 37/95/6 36/94/6

usemtl Color_B01
v 10.7848 4 -5.78483
vt 227.749 157.48
vt 227.749 78.7402
vt 234.269 78.7402
v 10.7848 4 -5.95044
vt 234.269 157.48
f 60/131/9 59/132/9 36/133/9 61/134/9 

usemtl Color_A06
v 10.9504 4 -5.78483
vt -431.12 157.48
v 10.9504 2 -5.78483
vt -431.12 78.7402
vt -424.6 78.7402
vt -424.6 157.48
f 62/135/17 63/136/17 59/137/17 60/138/17 

usemtl Color_B01
v 10.9504 4 -5.95044
vt -234.269 157.48
v 10.9504 2 -5.95044
vt -234.269 78.7402
vt -227.749 78.7402
vt -227.749 157.48
f 64/139/1 65/140/1 63/141/1 62/142/1 

usemtl Color_A06
vt 424.6 157.48
vt 424.6 78.7402
vt 431.12 78.7402
vt 431.12 157.48
f 61/143/4 36/144/4 65/145/4 64/146/4 

vt -431.12 234.269
f 36/94/6 38/96/6 65/147/6

vt -431.12 227.749
f 65/147/6 38/96/6 63/148/6

f 58/119/6 63/148/6 38/96/6

f 58/119/6 59/130/6 63/148/6

usemtl Color_B01
vt -236.22 78.7402
vt -236.22 0
vt -225.798 39.3701
vt -225.798 78.7402
f 38/149/1 41/150/1 56/151/1 58/152/1 

vt -10.4226 39.3701
v 11 0 -0
f 57/153/1 56/151/1 41/150/1 66/2/1 

v 11 2 -0.264735
vt -10.4226 78.7402
v 11 2 -0
vt 0 78.7402
f 67/154/1 57/153/1 66/2/1 68/155/1 

usemtl Color_A06
vt 433.071 39.3701
v 10.7353 2 -0.264735
f 52/101/4 57/156/4 67/99/4 69/100/4 

v 10.7848 2 -0.215172
vt -424.6 8.47132
f 70/157/6 69/116/6 67/120/6

v 10.7353 2 -0
f 69/116/6 70/157/6 71/117/6

v 10.7848 2 -0.0495629
vt -424.6 1.9513
f 72/158/6 71/117/6 70/157/6

vt -433.071 0
f 71/117/6 72/158/6 68/159/6

v 10.9504 2 -0.0495629
vt -431.12 1.9513
f 68/159/6 72/158/6 73/160/6

v 10.9504 3.55 -0.0495629
vt -431.12 139.764
v 10.7848 3.55 -0.0495629
vt -424.6 139.764
f 74/161/17 73/136/17 72/137/17 75/162/17 

usemtl Color_B01
v 10.9504 3.55 -0.215172
vt -8.47132 139.764
vn -1 3.72599e-015 -0
v 10.9504 2 -0.215172
vt -8.47132 78.7402
vt -1.9513 78.7402
vt -1.9513 139.764
f 76/163/20 77/164/20 73/165/20 74/166/20 

usemtl Color_A06
v 10.7848 3.55 -0.215172
vt 424.6 139.764
vt 431.12 139.764
f 78/167/4 70/144/4 77/145/4 76/168/4 

usemtl Color_B01
vt 1.9513 139.764
vn 1 -3.72599e-015 -0
vt 1.9513 78.7402
vt 8.47132 78.7402
vt 8.47132 139.764
f 75/169/21 72/170/21 70/171/21 78/172/21 

usemtl Color_A06
vt -431.12 8.47132
f 74/160/6 75/158/6 78/157/6 76/173/6 

f 70/157/6 67/120/6 77/173/6

f 77/173/6 67/120/6 73/160/6

f 68/159/6 73/160/6 67/120/6

f 68/129/17 66/159/17 53/127/17 71/128/17 

v 5.15704 0.25 -0
vt -203.033 9.84252
vt -203.033 39.3701
f 53/127/17 66/159/17 79/174/17 54/175/17 

v 2.15704 0.25 -0
vt -84.9227 9.84252
v 0 0 -0
f 80/176/17 79/174/17 66/159/17 81/2/17 

usemtl Color_C06
vt -84.9227 0
v 2.15704 0.25 -0.25
v 5.15704 0.25 -0.25
f 80/177/6 82/176/6 83/174/6 79/118/6 

usemtl Color_F16
v 2.15704 0.75 -0.75
vt -29.5276 29.5276
v 2.15704 0.75 -0.5
vt -19.685 29.5276
v 2.15704 0.5 -0.5
vt -19.685 19.685
v 2.15704 0.5 -0.25
vt -9.84252 19.685
vt -9.84252 9.84252
vt 0 9.84252
v 2.15704 1 -0
vt 0 39.3701
vt -29.5276 39.3701
f 84/178/1 85/179/1 86/180/1 87/181/1 82/182/1 80/183/1 88/184/1 51/185/1 

usemtl Color_C06
v 5.15704 0.75 -0.75
v 5.15704 0.75 -0.5
vt -203.033 19.685
vt -84.9227 19.685
f 89/114/6 90/186/6 85/187/6 84/115/6 

usemtl Color_F16
vt 29.5276 39.3701
vt 9.84252 9.84252
v 5.15704 0.5 -0.25
vt 9.84252 19.685
v 5.15704 0.5 -0.5
vt 19.685 19.685
vt 19.685 29.5276
vt 29.5276 29.5276
f 50/188/9 54/184/9 79/183/9 83/189/9 91/190/9 92/191/9 90/192/9 89/193/9 

usemtl Color_E02
f 82/176/17 87/187/17 91/186/17 83/174/17 

usemtl Color_C06
f 87/176/6 86/187/6 92/186/6 91/174/6 

usemtl Color_E02
f 86/187/17 85/115/17 90/114/17 92/186/17 

f 51/109/17 50/175/17 89/114/17 84/115/17 

usemtl Color_A06
v 0.264735 1 -0
f 80/176/17 81/2/17 93/153/17 88/109/17 

v 0.264735 2 -0
v 0 2 -0
f 94/154/17 93/153/17 81/2/17 95/155/17 

v 0.264735 1 -0.264735
v 0.264735 2 -0.264735
f 96/153/1 93/184/1 94/155/1 97/154/1 

usemtl Color_J06
vt -10.4226 0
vt -10.4226 10.4226
f 93/194/6 96/195/6 48/112/6 51/115/6 88/177/6 

v 0 1 -0.264735
vt 0 10.4226
f 46/155/6 48/112/6 96/195/6 98/196/6 

usemtl Color_A06
vt 10.4226 39.3701
vt 10.4226 78.7402
v 0 2 -0.264735
f 98/184/4 96/197/4 97/198/4 99/155/4 

v 0.0495629 2 -0.215172
vt -1.9513 8.47132
f 100/199/6 99/196/6 97/195/6

f 99/196/6 100/199/6 95/2/6

v 0.0495629 2 -0.0495629
vt -1.9513 1.9513
f 101/200/6 95/2/6 100/199/6

f 95/2/6 101/200/6 94/194/6

v 0.215172 2 -0.0495629
vt -8.47132 1.9513
f 94/194/6 101/200/6 102/201/6

v 0.215172 3.55 -0.0495629
v 0.0495629 3.55 -0.0495629
f 103/163/17 102/164/17 101/165/17 104/166/17 

usemtl Color_B01
v 0.215172 3.55 -0.215172
v 0.215172 2 -0.215172
f 105/163/1 106/164/1 102/165/1 103/166/1 

usemtl Color_A06
v 0.0495629 3.55 -0.215172
f 107/169/4 100/170/4 106/171/4 105/172/4 

usemtl Color_B01
f 104/169/9 101/170/9 100/171/9 107/172/9 

usemtl Color_A06
vt -8.47132 8.47132
f 105/202/6 103/201/6 104/200/6 107/199/6 

f 100/199/6 97/195/6 106/202/6

f 106/202/6 97/195/6 102/201/6

f 94/194/6 102/201/6 97/195/6

usemtl Color_B01
f 95/155/9 81/2/9 98/197/9 99/198/9 

f 81/2/9 40/106/9 46/105/9 98/197/9 

usemtl Color_A06
f 53/184/9 52/197/9 69/198/9 71/155/9 

f 61/94/6 64/147/6 62/148/6 60/130/6 

vt -236.22 157.48
vt -236.22 39.3701
vt -78.7402 39.3701
vt -78.7402 157.48
f 44/203/1 43/204/1 47/205/1 49/206/1 

v 8.69414 4 -2.30586
vt -342.289 90.7818
f 49/113/6 108/207/6 44/121/6

v 0.305857 4 -2.30586
vt -12.0416 90.7818
f 49/113/6 109/208/6 108/207/6

f 45/155/6 109/208/6 49/113/6

v 0.305857 4 -5.69414
vt -12.0416 224.179
f 109/208/6 45/155/6 110/209/6

vt 0 236.22
f 39/210/6 110/209/6 45/155/6

f 110/209/6 39/210/6 44/121/6

v 8.69414 4 -5.69414
vt -342.289 224.179
f 110/209/6 44/121/6 111/211/6

f 111/211/6 44/121/6 108/207/6

v 8.69414 1 -2.30586
vt 90.7818 39.3701
v 8.69414 1 -5.69414
vt 224.179 39.3701
vt 224.179 157.48
vt 90.7818 157.48
f 112/212/9 113/213/9 111/214/9 108/215/9 

vt -342.289 39.3701
v 0.305857 1 -5.69414
vt -12.0416 39.3701
vt -12.0416 157.48
vt -342.289 157.48
f 113/216/17 114/217/17 110/218/17 111/219/17 

vt -224.179 39.3701
v 0.305857 1 -2.30586
vt -90.7818 39.3701
vt -90.7818 157.48
vt -224.179 157.48
f 114/220/1 115/221/1 109/222/1 110/223/1 

vt 12.0416 39.3701
vt 342.289 39.3701
vt 342.289 157.48
vt 12.0416 157.48
f 115/224/4 112/225/4 108/226/4 109/227/4 

